name ./resultDataOpenSim/trcMotMarkerGrf/sub06/grf-12-07.mot
datacolumns 19
datarows 10
range 0.50000000 0.53600000
endheader

                time	     ground_force_vx	     ground_force_vy	     ground_force_vz	     ground_force_px	     ground_force_py	     ground_force_pz	   l_ground_force_vx	   l_ground_force_vy	   l_ground_force_vz	   l_ground_force_px	   l_ground_force_py	   l_ground_force_pz	     ground_torque_x	     ground_torque_y	     ground_torque_z	   l_ground_torque_x	   l_ground_torque_y	   l_ground_torque_z	
          0.50000000	        121.03557254	        701.47768678	        -34.50045884	         -0.82980255	          0.00000000	          0.08301720	          0.00000000	          0.00000000	          0.00000000	          0.00000000	          0.00000000	          0.00000000	          0.00000000	          1.54755672	          0.00000000	          0.00000000	          0.00000000	          0.00000000	
          0.50400000	        127.47016645	        714.53566344	        -35.10261506	         -0.82931233	          0.00000000	          0.08281161	          0.00000000	          0.00000000	          0.00000000	          0.00000000	          0.00000000	          0.00000000	          0.00000000	          1.56562238	          0.00000000	          0.00000000	          0.00000000	          0.00000000	
          0.50800000	        134.05521473	        726.23847929	        -35.66002224	         -0.82879762	          0.00000000	          0.08268597	          0.00000000	          0.00000000	          0.00000000	          0.00000000	          0.00000000	          0.00000000	          0.00000000	          1.58446077	          0.00000000	          0.00000000	          0.00000000	          0.00000000	
          0.51200000	        140.76372920	        736.56634503	        -36.13486750	         -0.82825425	          0.00000000	          0.08261230	          0.00000000	          0.00000000	          0.00000000	          0.00000000	          0.00000000	          0.00000000	          0.00000000	          1.60391842	          0.00000000	          0.00000000	          0.00000000	          0.00000000	
          0.51600000	        147.58635281	        745.68395269	        -36.50672339	         -0.82774212	          0.00000000	          0.08253722	          0.00000000	          0.00000000	          0.00000000	          0.00000000	          0.00000000	          0.00000000	          0.00000000	          1.62280051	          0.00000000	          0.00000000	          0.00000000	          0.00000000	
          0.52000000	        154.49562582	        753.68000927	        -36.81286796	         -0.82729823	          0.00000000	          0.08243801	          0.00000000	          0.00000000	          0.00000000	          0.00000000	          0.00000000	          0.00000000	          0.00000000	          1.63863551	          0.00000000	          0.00000000	          0.00000000	          0.00000000	
          0.52400000	        161.40757715	        760.40351216	        -37.13498975	         -0.82687561	          0.00000000	          0.08233817	          0.00000000	          0.00000000	          0.00000000	          0.00000000	          0.00000000	          0.00000000	          0.00000000	          1.64782220	          0.00000000	          0.00000000	          0.00000000	          0.00000000	
          0.52800000	        168.20121914	        765.55534776	        -37.54718007	         -0.82639216	          0.00000000	          0.08228034	          0.00000000	          0.00000000	          0.00000000	          0.00000000	          0.00000000	          0.00000000	          0.00000000	          1.64626379	          0.00000000	          0.00000000	          0.00000000	          0.00000000	
          0.53200000	        174.77003422	        768.94734909	        -38.09085548	         -0.82581810	          0.00000000	          0.08227445	          0.00000000	          0.00000000	          0.00000000	          0.00000000	          0.00000000	          0.00000000	          0.00000000	          1.63022668	          0.00000000	          0.00000000	          0.00000000	          0.00000000	
          0.53600000	        181.05450889	        770.62705149	        -38.77645172	         -0.82520083	          0.00000000	          0.08228692	          0.00000000	          0.00000000	          0.00000000	          0.00000000	          0.00000000	          0.00000000	          0.00000000	          1.59699207	          0.00000000	          0.00000000	          0.00000000	          0.00000000	
